<svg xmlns="http://www.w3.org/2000/svg" viewBox="0 0 120 120" fill="none">
  <path d="M22 28 H78 A8 8 0 0 1 86 36 V72 A8 8 0 0 1 78 80 H50 L36 96 V80 H30 A8 8 0 0 1 22 72 Z" fill="#E2E8F0" opacity="0.5"/>
  <path d="M38 44 H82 A8 8 0 0 1 90 52 V84 A8 8 0 0 1 82 92 H74 V104 L60 92 H38 A8 8 0 0 1 30 84 V52 A8 8 0 0 1 38 44 Z" fill="none" stroke="#1FCBA8" stroke-width="5"/>
  <circle cx="60" cy="68" r="9" fill="none" stroke="#1FCBA8" stroke-width="4"/>
  <circle cx="60" cy="68" r="2.5" fill="#1FCBA8"/>
</svg>
